<svg viewBox="0 0 512 512" xmlns="http://www.w3.org/2000/svg">
  <rect width="512" height="512" rx="112" fill="#1e3568"/>
  <g transform="translate(102 110) scale(1.54)" stroke-linejoin="round">
    <path d="M100 18 C 145 18, 182 55, 182 100 C 182 130, 168 156, 148 170 L 100 130 L 52 170 C 32 156, 18 130, 18 100 C 18 55, 55 18, 100 18 Z"
          fill="none" stroke="#ffffff" stroke-width="8.5"/>
    <path d="M58 130 L58 96 L78 76 L78 130 Z"   fill="rgba(255,255,255,0.24)" stroke="#ffffff" stroke-width="7.5"/>
    <path d="M78 130 L78 60 L100 38 L100 130 Z"  fill="none"                  stroke="#ffffff" stroke-width="7.5"/>
    <path d="M100 130 L100 70 L122 50 L122 130 Z" fill="rgba(255,255,255,0.24)" stroke="#ffffff" stroke-width="7.5"/>
    <g fill="#ffffff">
      <rect x="90" y="145" width="9" height="9" rx="1"/>
      <rect x="101" y="145" width="9" height="9" rx="1"/>
      <rect x="90" y="156" width="9" height="9" rx="1"/>
      <rect x="101" y="156" width="9" height="9" rx="1"/>
    </g>
  </g>
</svg>
